P3
4 4
255
80 32 0 64 80 32 48 96 112 64 80 128 
96 16 32 112 64 32 80 112 80 48 96 112 
96 32 112 128 32 80 112 64 32 64 80 32 
64 64 128 96 32 112 96 16 32 80 32 0 
