P3
4 4
255
255 10 10 10 255 10 10 10 255 255 255 255 
10 10 10 255 10 10 10 255 10 10 10 255 
255 10 255 10 10 10 255 10 10 10 255 10 
10 255 255 255 10 255 10 10 10 255 10 10 
