P3
4 4
255
255 32 0 32 255 0 32 159 255 191 255 255 
128 0 0 255 32 0 64 255 96 32 159 255 
255 0 255 159 32 96 255 32 0 32 255 0 
64 223 255 255 0 255 128 0 0 255 32 0 
