P3
# Created by GIMP version 2.10.34 PNM plug-in
2 2
255
185
137
58
146
188
219
187
137
219
185
137
58
